<?xml version="1.0" encoding="UTF-8"?>
<!DOCTYPE svg PUBLIC "-//W3C//DTD SVG 1.1//EN" "http://www.w3.org/Graphics/SVG/1.1/DTD/svg11.dtd">
<svg xmlns="http://www.w3.org/2000/svg" version="1.1" width="512px" height="512px" style="shape-rendering:geometricPrecision; text-rendering:geometricPrecision; image-rendering:optimizeQuality; fill-rule:evenodd; clip-rule:evenodd" xmlns:xlink="http://www.w3.org/1999/xlink">
<g><path style="opacity:0.925" fill="#ff8b00" d="M 511.5,177.5 C 511.5,180.167 511.5,182.833 511.5,185.5C 495.701,200.798 480.035,216.298 464.5,232C 458.659,234.182 453.826,232.682 450,227.5C 442.331,249.858 431.998,270.858 419,290.5C 414.978,295.021 411.144,299.688 407.5,304.5C 417.523,320.427 416.523,335.594 404.5,350C 397.115,356.518 388.449,359.685 378.5,359.5C 377.586,382.583 365.753,394.249 343,394.5C 342.165,418.169 329.998,430.169 306.5,430.5C 306.443,452.654 295.443,464.654 273.5,466.5C 265.502,466.577 258.335,464.244 252,459.5C 232.932,471.004 216.265,468.337 202,451.5C 198.151,445.022 196.651,438.022 197.5,430.5C 173.967,430.135 161.801,418.135 161,394.5C 138.233,394.235 126.4,382.569 125.5,359.5C 103.437,358.77 91.4373,347.436 89.5,325.5C 89.5086,317.304 92.1753,310.137 97.5,304C 81.3512,283.54 69.5178,260.706 62,235.5C 61.6667,235.167 61.3333,234.833 61,234.5C 56.4999,240.853 50.9999,242.019 44.5,238C 29.271,222.938 14.271,207.772 -0.5,192.5C -0.5,189.833 -0.5,187.167 -0.5,184.5C 4.96946,178.198 10.9695,172.365 17.5,167C 26.1156,165.283 29.949,168.783 29,177.5C 26.3702,181.132 23.3702,184.465 20,187.5C 19.3333,188.167 19.3333,188.833 20,189.5C 30.1667,199.667 40.3333,209.833 50.5,220C 51.1667,220.667 51.8333,220.667 52.5,220C 91.3471,181.32 130.014,142.486 168.5,103.5C 158.167,92.5 147.5,81.8333 136.5,71.5C 107.014,100.486 77.6804,129.653 48.5,159C 41.1201,162.475 36.4534,160.309 34.5,152.5C 35.2357,150.459 36.0691,148.459 37,146.5C 68.5278,114.639 100.361,83.1386 132.5,52C 135.634,51.2099 138.634,51.5432 141.5,53C 156.333,67.8333 171.167,82.6667 186,97.5C 189.461,104.143 187.961,109.643 181.5,114C 207.315,121.491 230.815,133.324 252,149.5C 265.858,136.145 281.692,125.645 299.5,118C 309.137,114.066 318.803,110.233 328.5,106.5C 323.453,102.442 321.953,97.4422 324,91.5C 339.167,76.3333 354.333,61.1667 369.5,46C 373.167,44 376.833,44 380.5,46C 424.395,89.7283 468.062,133.562 511.5,177.5 Z M 373.5,64.5 C 413.083,102.582 452.25,141.249 491,180.5C 491.667,181.167 491.667,181.833 491,182.5C 480.667,192.833 470.333,203.167 460,213.5C 420.833,174.333 381.667,135.167 342.5,96C 353.035,85.6317 363.369,75.1317 373.5,64.5 Z M 339.5,120.5 C 340.873,120.343 342.207,120.51 343.5,121C 374.5,152 405.5,183 436.5,214C 429.429,237.638 419.263,259.804 406,280.5C 402.702,284.8 399.035,288.8 395,292.5C 370.5,268 346,243.5 321.5,219C 287.477,208.258 257.811,215.258 232.5,240C 220.877,244.906 212.377,241.74 207,230.5C 206.023,225.266 206.69,220.266 209,215.5C 230.528,193.638 252.361,172.138 274.5,151C 294.698,137.566 316.364,127.4 339.5,120.5 Z M 167.5,127.5 C 189.884,133.025 210.884,141.858 230.5,154C 233.671,156.341 236.671,158.841 239.5,161.5C 225.181,176.319 210.681,190.986 196,205.5C 186.31,222.67 188.477,238.17 202.5,252C 215.606,260.273 228.94,260.606 242.5,253C 261.615,233.187 284.615,226.52 311.5,233C 339.639,260.138 367.472,287.638 395,315.5C 401.04,330.087 396.373,339.42 381,343.5C 377.68,342.832 374.513,341.665 371.5,340C 362.5,331 353.5,322 344.5,313C 337.176,308.666 332.176,310.499 329.5,318.5C 330.236,320.541 331.069,322.541 332,324.5C 341,333.5 350,342.5 359,351.5C 365.04,363.17 362.207,372.003 350.5,378C 345.266,378.977 340.266,378.31 335.5,376C 325.804,365.97 315.804,356.303 305.5,347C 294.435,346.761 291.602,351.595 297,361.5C 306,370.5 315,379.5 324,388.5C 329.093,400.557 325.593,409.057 313.5,414C 306.19,415.183 299.857,413.183 294.5,408C 286.333,406.833 282.833,410.333 284,418.5C 290.725,425.64 292.058,433.64 288,442.5C 281.374,451.061 273.541,452.561 264.5,447C 281.101,430.759 282.434,413.426 268.5,395C 261.134,388.377 252.468,385.21 242.5,385.5C 241.501,362.501 229.501,350.501 206.5,349.5C 205.526,326.526 193.526,314.526 170.5,313.5C 170.074,291.743 159.074,280.076 137.5,278.5C 125.719,278.474 116.219,283.14 109,292.5C 93.3051,270.781 81.8051,246.948 74.5,221C 105.702,189.965 136.702,158.799 167.5,127.5 Z M 132.5,294.5 C 144.875,293.384 152.208,298.884 154.5,311C 154.238,313.547 153.738,316.047 153,318.5C 145.796,327.371 137.629,335.205 128.5,342C 113.52,343.947 106.02,337.447 106,322.5C 106.725,320.051 107.725,317.717 109,315.5C 116.158,307.496 123.991,300.496 132.5,294.5 Z M 167.5,330.5 C 182.158,329.332 189.658,335.999 190,350.5C 189.275,352.949 188.275,355.283 187,357.5C 180.833,363.667 174.667,369.833 168.5,376C 156.007,381.498 147.173,377.998 142,365.5C 140.891,360.352 141.891,355.685 145,351.5C 152.095,343.9 159.595,336.9 167.5,330.5 Z M 208.5,365.5 C 223.205,368.585 228.371,377.252 224,391.5C 217.833,399 211,405.833 203.5,412C 189.156,417.328 180.489,412.495 177.5,397.5C 177.72,393.005 179.22,389.005 182,385.5C 186.833,380.667 191.667,375.833 196.5,371C 200.227,368.299 204.227,366.465 208.5,365.5 Z M 242.5,401.5 C 259.261,403.696 264.761,412.696 259,428.5C 252.5,435 246,441.5 239.5,448C 227.96,452.932 219.46,449.765 214,438.5C 212.775,432.732 213.775,427.399 217,422.5C 222.5,417 228,411.5 233.5,406C 236.324,403.921 239.324,402.421 242.5,401.5 Z"/></g>
</svg>
