<?xml version="1.0" encoding="UTF-8"?>
<!DOCTYPE svg PUBLIC "-//W3C//DTD SVG 1.1//EN" "http://www.w3.org/Graphics/SVG/1.1/DTD/svg11.dtd">
<svg xmlns="http://www.w3.org/2000/svg" version="1.1" width="512px" height="512px" style="shape-rendering:geometricPrecision; text-rendering:geometricPrecision; image-rendering:optimizeQuality; fill-rule:evenodd; clip-rule:evenodd" xmlns:xlink="http://www.w3.org/1999/xlink">
<g><path style="opacity:0.928" fill="#ff8b00" d="M 189.5,-0.5 C 192.167,-0.5 194.833,-0.5 197.5,-0.5C 216.786,18.4515 236.119,37.4515 255.5,56.5C 274.881,37.4515 294.214,18.4515 313.5,-0.5C 316.167,-0.5 318.833,-0.5 321.5,-0.5C 383.525,33.5988 445.691,67.5988 508,101.5C 510,105.167 510,108.833 508,112.5C 489.319,131.014 470.819,149.681 452.5,168.5C 470.456,187.957 488.956,206.957 508,225.5C 511.226,232.267 509.392,237.101 502.5,240C 484.833,249.5 467.167,259 449.5,268.5C 448.991,315.246 448.157,361.913 447,408.5C 444.766,410.7 442.266,412.533 439.5,414C 379.279,446.274 319.279,478.774 259.5,511.5C 256.833,511.5 254.167,511.5 251.5,511.5C 191.721,478.774 131.721,446.274 71.5,414C 68.2167,412.439 65.3834,410.273 63,407.5C 62.8333,361.163 62.3333,314.83 61.5,268.5C 41.5779,257.901 21.9112,246.901 2.5,235.5C 1.10557,232.092 1.27224,228.759 3,225.5C 22.0444,206.957 40.5444,187.957 58.5,168.5C 40.1806,149.681 21.6806,131.014 3,112.5C 0.696568,107.962 1.19657,103.795 4.5,100C 38.0394,81.7308 71.706,63.7308 105.5,46C 113.656,45.4998 116.822,49.3332 115,57.5C 114.167,58.3333 113.333,59.1667 112.5,60C 82.5,76.3333 52.5,92.6667 22.5,109C 39.0139,125.681 55.6805,142.181 72.5,158.5C 129.007,127.746 185.674,97.2456 242.5,67C 225.959,50.1253 209.126,33.6253 192,17.5C 172.896,27.635 153.73,37.635 134.5,47.5C 127.721,46.2887 125.221,42.2887 127,35.5C 127.833,34 129,32.8333 130.5,32C 150.229,21.1387 169.895,10.3053 189.5,-0.5 Z M 317.5,17.5 C 321.362,18.4281 325.029,19.9281 328.5,22C 381.833,51 435.167,80 488.5,109C 472.167,125.333 455.833,141.667 439.5,158C 436.053,157.288 432.719,155.955 429.5,154C 375.993,124.746 322.326,95.7457 268.5,67C 285.035,50.6319 301.368,34.1319 317.5,17.5 Z M 253.5,78.5 C 254.873,78.3433 256.207,78.51 257.5,79C 312.833,109 368.167,139 423.5,169C 367.659,199.421 311.659,229.588 255.5,259.5C 199.341,229.588 143.341,199.421 87.5,169C 143.055,139.059 198.389,108.892 253.5,78.5 Z M 71.5,178.5 C 128.3,209.067 184.966,239.9 241.5,271C 224.986,287.681 208.319,304.181 191.5,320.5C 135.167,290 78.8333,259.5 22.5,229C 39.3996,212.602 55.7329,195.769 71.5,178.5 Z M 438.5,178.5 C 454.938,195.438 471.604,212.272 488.5,229C 458.993,245.254 429.326,261.254 399.5,277C 395.723,279.955 394.557,283.788 396,288.5C 399.478,292.662 403.644,293.496 408.5,291C 416.04,286.632 423.707,282.466 431.5,278.5C 432.833,318.833 432.833,359.167 431.5,399.5C 375.587,429.706 319.753,460.04 264,490.5C 263.333,423.167 263.333,355.833 264,288.5C 280.5,305 297,321.5 313.5,338C 317.782,338.965 321.782,338.298 325.5,336C 344.91,325.546 364.077,314.713 383,303.5C 386.036,293.539 382.536,289.705 372.5,292C 354.833,301.5 337.167,311 319.5,320.5C 302.681,304.181 286.014,287.681 269.5,271C 325.895,240.138 382.229,209.305 438.5,178.5 Z M 78.5,278.5 C 114.431,297.133 150.098,316.3 185.5,336C 189.218,338.298 193.218,338.965 197.5,338C 214,321.5 230.5,305 247,288.5C 247.667,355.833 247.667,423.167 247,490.5C 191.247,460.04 135.413,429.706 79.5,399.5C 78.5001,359.172 78.1668,318.839 78.5,278.5 Z"/></g>
</svg>
