<?xml version="1.0" encoding="UTF-8"?>
<!DOCTYPE svg PUBLIC "-//W3C//DTD SVG 1.1//EN" "http://www.w3.org/Graphics/SVG/1.1/DTD/svg11.dtd">
<svg xmlns="http://www.w3.org/2000/svg" version="1.1" width="512px" height="512px" style="shape-rendering:geometricPrecision; text-rendering:geometricPrecision; image-rendering:optimizeQuality; fill-rule:evenodd; clip-rule:evenodd" xmlns:xlink="http://www.w3.org/1999/xlink">
<g><path style="opacity:0.929" fill="#ff8b00" d="M 511.5,83.5 C 511.5,198.833 511.5,314.167 511.5,429.5C 507.614,439.543 500.28,445.376 489.5,447C 442.5,447.333 395.5,447.667 348.5,448C 342.095,455.864 333.762,459.364 323.5,458.5C 321.682,480.916 309.682,490.082 287.5,486C 256.42,473.529 225.42,460.862 194.5,448C 154.467,447.965 114.467,447.298 74.5,446C 65.4949,442.993 59.9949,436.827 58,427.5C 57.3333,418.833 57.3333,410.167 58,401.5C 61.8043,395.623 66.471,394.956 72,399.5C 73.2441,408.091 73.9108,416.758 74,425.5C 75.1667,428 77,429.833 79.5,431C 103.833,431.667 128.167,431.667 152.5,431C 143.06,427.114 134.06,422.447 125.5,417C 115.167,408 105.5,398.333 96.5,388C 87.8162,381.407 78.3162,376.24 68,372.5C 64.8703,378.628 59.8703,381.962 53,382.5C 36.5251,376.786 20.3584,370.286 4.5,363C 2.44965,361.035 0.782988,358.868 -0.5,356.5C -0.5,352.833 -0.5,349.167 -0.5,345.5C 15.89,306.37 32.0567,267.036 48,227.5C 51.8328,219.878 57.9994,217.045 66.5,219C 81.3276,224.609 95.9942,230.609 110.5,237C 116.79,243.177 118.123,250.344 114.5,258.5C 139.743,257.386 164.743,254.22 189.5,249C 223.583,242.384 257.583,235.384 291.5,228C 309.48,225.819 319.813,233.652 322.5,251.5C 321.602,262.883 315.936,270.716 305.5,275C 288.167,280.333 270.833,285.667 253.5,291C 292.581,306.805 331.581,322.805 370.5,339C 384.842,351.928 386.175,366.095 374.5,381.5C 386.927,391.546 389.76,403.879 383,418.5C 378.4,425.555 371.9,429.721 363.5,431C 405.5,431.667 447.5,431.667 489.5,431C 493,430.167 495.167,428 496,424.5C 496.5,314.834 496.667,205.167 496.5,95.5C 445.167,95.5 393.833,95.5 342.5,95.5C 342.667,133.168 342.5,170.835 342,208.5C 338.233,217.201 332.066,219.368 323.5,215C 310.667,203.5 297.833,192 285,180.5C 271.796,192.706 258.296,204.539 244.5,216C 238.464,218.66 233.298,217.493 229,212.5C 227.512,173.586 227.012,134.586 227.5,95.5C 176.167,95.5 124.833,95.5 73.5,95.5C 73.6667,128.835 73.5,162.168 73,195.5C 71.1344,202.347 66.9677,204.18 60.5,201C 59.2986,200.097 58.4652,198.931 58,197.5C 57.3333,159.833 57.3333,122.167 58,84.5C 65.0565,66.054 72.3898,47.7206 80,29.5C 81.9384,26.8941 84.4384,25.0608 87.5,24C 188.5,23.3333 289.5,23.3333 390.5,24C 396.341,28.3236 396.675,32.9903 391.5,38C 371.542,39.119 351.542,39.9523 331.5,40.5C 334.974,53.3973 337.974,66.3973 340.5,79.5C 391.171,79.8333 441.838,79.4999 492.5,78.5C 487.203,65.5791 482.203,52.5791 477.5,39.5C 465.162,39.6665 452.829,39.4999 440.5,39C 434.37,37.5865 432.204,33.7531 434,27.5C 435.167,26.3333 436.333,25.1667 437.5,24C 452.167,23.3333 466.833,23.3333 481.5,24C 485.843,25.0095 489.01,27.5095 491,31.5C 497.567,49.0516 504.4,66.3849 511.5,83.5 Z M 92.5,39.5 C 140.833,39.5 189.167,39.5 237.5,39.5C 234.889,52.7757 231.889,65.9423 228.5,79C 178.168,79.5 127.834,79.6667 77.5,79.5C 82.1049,66.0185 87.1049,52.6852 92.5,39.5 Z M 254.5,39.5 C 274.844,39.167 295.178,39.5004 315.5,40.5C 318.659,53.4677 321.659,66.4677 324.5,79.5C 297.831,79.6666 271.165,79.5 244.5,79C 247.913,65.8482 251.246,52.6816 254.5,39.5 Z M 242.5,95.5 C 270.5,95.5 298.5,95.5 326.5,95.5C 326.667,128.835 326.5,162.168 326,195.5C 314.833,185.667 303.667,175.833 292.5,166C 285.452,162.15 279.119,163.15 273.5,169C 263.617,178.518 253.45,187.684 243,196.5C 242.5,162.835 242.333,129.168 242.5,95.5 Z M 62.5,234.5 C 75.2632,239.367 87.9299,244.534 100.5,250C 84.5374,288.761 68.7041,327.595 53,366.5C 40.6803,361.006 28.1803,356.006 15.5,351.5C 30.5777,312.268 46.2444,273.268 62.5,234.5 Z M 296.5,242.5 C 307.123,244.938 309.123,250.438 302.5,259C 277.178,266.998 251.845,274.998 226.5,283C 220.713,288.827 221.38,293.827 228.5,298C 273.395,315.781 318.061,334.114 362.5,353C 368.048,359.292 367.715,365.292 361.5,371C 359.634,371.985 357.634,372.485 355.5,372.5C 323.871,360.606 292.371,348.273 261,335.5C 254.558,337.046 252.225,341.046 254,347.5C 255.731,349.617 257.898,351.117 260.5,352C 295.614,366.057 330.614,380.39 365.5,395C 373.266,402.246 372.6,408.913 363.5,415C 361.167,415.667 358.833,415.667 356.5,415C 320.131,399.645 283.464,385.145 246.5,371.5C 239.892,372.273 237.725,375.94 240,382.5C 240.374,383.416 240.874,384.25 241.5,385C 272.167,397.667 302.833,410.333 333.5,423C 338.58,427.549 339.414,432.715 336,438.5C 333.463,441.046 330.463,442.712 327,443.5C 296.689,431.763 266.522,419.597 236.5,407C 229.75,404.766 225.75,407.099 224.5,414C 224.795,416.923 226.129,419.257 228.5,421C 253.614,431.057 278.614,441.39 303.5,452C 309.048,458.292 308.715,464.292 302.5,470C 299.298,471.483 295.964,471.817 292.5,471C 245.833,452 199.167,433 152.5,414C 145.676,411.091 139.342,407.424 133.5,403C 123.833,393.333 114.167,383.667 104.5,374C 94.7607,367.463 84.4273,361.963 73.5,357.5C 84.8333,329.833 96.1667,302.167 107.5,274.5C 117.456,274.837 127.456,274.337 137.5,273C 191.082,265.181 244.082,255.014 296.5,242.5 Z"/></g>
</svg>
